<svg width="41" height="41" viewBox="0 0 41 41" fill="none" xmlns="http://www.w3.org/2000/svg">
<g clip-path="url(#clip0_146_1222)">
<circle cx="20.5" cy="20.5" r="20" fill="#EADDFF"/>
<path d="M21.1679 4.5C24.137 4.5 26.9845 5.67946 29.0839 7.77892C31.1834 9.87838 32.3629 12.7259 32.3629 15.6949V17.5821C33.2156 17.9579 33.9404 18.574 34.4488 19.355C34.9571 20.136 35.2271 21.0482 35.2256 21.9801V23.8992C35.2242 25.4675 34.6468 26.9806 33.6031 28.1512C32.5593 29.3217 31.122 30.068 29.5641 30.2484C29.0235 32.0551 27.9145 33.6392 26.4019 34.7654C24.8893 35.8917 23.0538 36.5 21.1679 36.5C19.2821 36.5 17.4465 35.8917 15.9339 34.7654C14.4213 33.6392 13.3123 32.0551 12.7717 30.2484C11.1536 30.1471 9.63428 29.4351 8.52097 28.2565C7.40767 27.0779 6.78341 25.5205 6.77442 23.8992V21.9801C6.77292 21.0482 7.04283 20.136 7.55121 19.355C8.05958 18.574 8.78439 17.9579 9.63713 17.5821V15.6949C9.63713 12.7259 10.8166 9.87838 12.916 7.77892C15.0155 5.67946 17.863 4.5 20.8321 4.5H21.1679ZM21.1679 7.69855C19.0471 7.69855 17.0132 8.54103 15.5136 10.0406C14.014 11.5403 13.1715 13.5742 13.1715 15.6949V17.2942H29.1643V15.6949C29.1643 13.5742 28.3218 11.5403 26.8222 10.0406C25.3226 8.54103 23.2887 7.69855 21.1679 7.69855Z" fill="#8E327C"/>
</g>
<defs>
<clipPath id="clip0_146_1222">
<rect width="40" height="40" fill="white" transform="translate(0.5 0.5)"/>
</clipPath>
</defs>
</svg>
